<?xml version="1.0" standalone="no"?>
<!DOCTYPE svg PUBLIC "-//W3C//DTD SVG 20010904//EN"
 "http://www.w3.org/TR/2001/REC-SVG-20010904/DTD/svg10.dtd">
<svg version="1.0" xmlns="http://www.w3.org/2000/svg"
 width="700.000000pt" height="700.000000pt" viewBox="0 0 700.000000 700.000000"
 preserveAspectRatio="xMidYMid meet">
<metadata>
Created by potrace 1.11, written by Peter Selinger 2001-2013
</metadata>
<g transform="translate(0.000000,700.000000) scale(0.100000,-0.100000)"
fill="#000000" stroke="none">
<path d="M190 3690 l0 -3200 3200 0 3200 0 0 3200 0 3200 -3200 0 -3200 0 0
-3200z m2327 2554 c196 -23 502 -92 636 -143 l27 -11 0 -220 c0 -121 -2 -220
-4 -220 -2 0 -39 16 -82 36 -207 94 -454 169 -640 194 -59 8 -157 11 -270 7
-149 -4 -195 -9 -276 -30 -222 -58 -366 -178 -419 -346 -57 -184 -15 -401 96
-498 103 -92 243 -140 652 -224 454 -93 645 -164 822 -306 216 -172 321 -412
321 -731 0 -519 -294 -846 -855 -952 -410 -78 -843 -37 -1357 127 l-148 46 0
234 c0 128 2 233 5 233 2 0 62 -29 132 -64 288 -143 520 -212 798 -236 145
-13 330 -2 451 26 215 49 372 159 443 309 38 79 51 146 51 257 0 194 -68 331
-212 430 -126 85 -246 125 -567 188 -249 50 -370 80 -487 121 -327 115 -521
297 -594 554 -42 148 -46 359 -10 520 55 245 231 459 478 584 244 123 596 163
1009 115z m2378 -59 c270 -41 442 -116 593 -259 189 -180 272 -403 272 -734 0
-568 -285 -898 -852 -987 -75 -12 -206 -18 -485 -22 l-383 -6 0 -673 0 -674
-230 0 -230 0 0 1685 0 1685 608 0 c488 0 627 -3 707 -15z"/>
<path d="M4040 5195 l0 -635 329 0 c438 0 519 14 674 117 165 109 248 312 234
566 -3 56 -13 128 -21 160 -63 233 -242 381 -505 416 -47 6 -223 11 -398 11
l-313 0 0 -635z"/>
</g>
</svg>
